<?xml version="1.0"?>

<svg version="1.1" id="레이어_1" xmlns="http://www.w3.org/2000/svg" xmlns:xlink="http://www.w3.org/1999/xlink" x="0px" y="0px" viewBox="0 0 438.5 274.9" style="enable-background:new 0 0 438.5 274.9;" xml:space="preserve">

<path class="st0" fill="#ceff00" d="M88.9,145.53H0.21v-18.74L48.3,70.16c8.95-10.41,13.32-19.15,13.32-28.52c0-11.66-8.54-17.49-17.9-17.49&#xA;&#x9;c-9.79,0-17.07,6.04-17.9,17.49H0C0,16.86,20.4,0,45.18,0c25.82,0,45.39,17.9,45.39,41.64c0,18.95-12.49,33.73-21.65,44.55&#xA;&#x9;l-29.56,34.77H88.9V145.53z"></path>
<path class="st0" fill="#ceff00" d="M206.52,101.6c0,32.27-22.48,45.8-48.3,45.8c-25.82,0-48.3-13.53-48.3-45.8V45.8c0-33.73,22.48-45.8,48.3-45.8&#xA;&#x9;c25.82,0,48.3,12.08,48.3,45.59V101.6z M158.22,24.57c-13.12,0-19.36,8.33-19.36,23.73v50.8c0,15.41,6.25,23.73,19.36,23.73&#xA;&#x9;c12.91,0,19.15-8.33,19.15-23.73V48.3C177.38,32.89,171.13,24.57,158.22,24.57z"></path>
<path class="st0" fill="#ceff00" d="M313.74,145.53h-88.69v-18.74l48.09-56.63c8.95-10.41,13.32-19.15,13.32-28.52c0-11.66-8.54-17.49-17.9-17.49&#xA;&#x9;c-9.79,0-17.07,6.04-17.9,17.49h-25.82c0-24.77,20.4-41.64,45.18-41.64c25.82,0,45.39,17.9,45.39,41.64&#xA;&#x9;c0,18.95-12.49,33.73-21.65,44.55l-29.56,34.77h49.55V145.53z"></path>
<path class="st0" fill="#ceff00" d="M378.06,61c4.37-2.08,8.74-2.71,13.95-2.71c22.07,0,39.35,18.11,39.35,42.89c0,31.85-21.44,46.22-48.09,46.22&#xA;&#x9;c-26.86,0-48.51-14.16-48.51-46.01c0-11.24,5-24.57,13.12-41.01l28.94-58.5h31.23L378.06,61z M383.27,122.83&#xA;&#x9;c12.49,0,18.95-8.33,18.95-20.4c0-11.87-6.45-20.19-18.95-20.19c-12.91,0-19.36,8.33-19.36,20.19&#xA;&#x9;C363.91,114.5,370.36,122.83,383.27,122.83z"></path>
<path class="st0" fill="#ceff00" d="M7.54,238.65v35.47H0v-89.65h27.29c20.66,0,32.61,10.13,32.61,27.16c0,16.89-11.82,27.03-32.61,27.03H7.54z&#xA;&#x9; M27.29,231.64c17.28,0,25.08-7.41,25.08-20.01c0-12.73-7.8-20.14-25.08-20.14H7.54v40.15H27.29z"></path>
<path class="st0" fill="#ceff00" d="M93.16,274.9c-16.76,0-26.38-10.39-26.38-28.58v-9.49c0-18.45,9.75-28.46,26.38-28.46s26.38,10.01,26.38,28.46&#xA;&#x9;v9.49C119.53,263.99,110.57,274.9,93.16,274.9z M112.39,236.83c0-14.16-6.89-21.83-19.23-21.83c-12.47,0-19.23,7.67-19.23,21.83&#xA;&#x9;v9.49c0,13.64,6.11,21.96,19.23,21.96c12.6,0,19.23-8.32,19.23-21.96V236.83z"></path>
<path class="st0" fill="#ceff00" d="M141.62,235.01v39.11h-7.15v-64.97h7.15v8.84c2.73-5.98,8.19-9.62,16.37-9.62c8.45,0,14.03,3.25,18.32,8.97&#xA;&#x9;l-5.98,4.42c-3.38-4.42-7.28-6.63-12.99-6.63C147.21,215.13,141.62,223.19,141.62,235.01z"></path>
<path class="st0" fill="#ceff00" d="M179.04,209.16h8.32v-14.29h7.15v14.29h15.98v6.63H194.5v36.38c0,10.39,1.17,15.07,11.69,15.07h4.29v6.89h-4.55&#xA;&#x9;c-14.42,0-18.58-6.5-18.58-20.01v-38.33h-8.32V209.16z"></path>
<path class="st0" fill="#ceff00" d="M227.37,209.16v-4.68c0-13.64,4.16-20.01,18.45-20.01h2.99v6.89h-2.86c-10.39,0-11.43,4.94-11.43,14.94v2.86&#xA;&#x9;h14.29v6.63h-14.29v58.34h-7.15v-58.34h-8.32v-6.63H227.37z"></path>
<path class="st0" fill="#ceff00" d="M283.63,274.9c-16.76,0-26.38-10.39-26.38-28.58v-9.49c0-18.45,9.75-28.46,26.38-28.46&#xA;&#x9;c16.63,0,26.38,10.01,26.38,28.46v9.49C310.01,263.99,301.04,274.9,283.63,274.9z M302.86,236.83c0-14.16-6.89-21.83-19.23-21.83&#xA;&#x9;c-12.47,0-19.23,7.67-19.23,21.83v9.49c0,13.64,6.11,21.96,19.23,21.96c12.6,0,19.23-8.32,19.23-21.96V236.83z"></path>
<path class="st0" fill="#ceff00" d="M324.94,184.47h7.15v68.08c0,9.1,1.04,15.07,12.34,15.07v6.76c-14.94,0-19.49-6.5-19.49-20.01V184.47z"></path>
<path class="st0" fill="#ceff00" d="M360.93,184.47h8.71v8.71h-8.71V184.47z M361.71,209.16h7.15v64.97h-7.15V209.16z"></path>
<path class="st0" fill="#ceff00" d="M412.13,274.9c-16.76,0-26.38-10.39-26.38-28.58v-9.49c0-18.45,9.75-28.46,26.38-28.46s26.38,10.01,26.38,28.46&#xA;&#x9;v9.49C438.5,263.99,429.54,274.9,412.13,274.9z M431.35,236.83c0-14.16-6.89-21.83-19.23-21.83c-12.47,0-19.23,7.67-19.23,21.83&#xA;&#x9;v9.49c0,13.64,6.11,21.96,19.23,21.96c12.6,0,19.23-8.32,19.23-21.96V236.83z"></path>
</svg>
