<?xml version="1.0"?>

<svg version="1.1" id="레이어_1" xmlns="http://www.w3.org/2000/svg" xmlns:xlink="http://www.w3.org/1999/xlink" x="0px" y="0px" viewBox="0 0 207.77 54.28" style="enable-background:new 0 0 207.77 54.28;" xml:space="preserve">

<g>
&#x9;<path class="st0" fill="#17140F" d="M181.42,54.28H26.35C11.82,54.28,0,42.46,0,27.93v-1.58C0,11.82,11.82,0,26.35,0h155.08&#xA;&#x9;&#x9;c14.53,0,26.35,11.82,26.35,26.35v1.58C207.77,42.46,195.95,54.28,181.42,54.28z M26.35,2C12.92,2,2,12.92,2,26.35v1.58&#xA;&#x9;&#x9;c0,13.43,10.92,24.35,24.35,24.35h155.08c13.43,0,24.35-10.92,24.35-24.35v-1.58C205.77,12.92,194.85,2,181.42,2H26.35z"></path>
</g>
<g>
&#x9;<path class="st0" fill="#17140F" d="M37.38,22.14c-0.84-4.29-3.38-5.91-6.83-5.91c-4.33,0-6.87,2.5-6.87,9.4v3.01c0,6.94,2.57,9.4,6.87,9.4&#xA;&#x9;&#x9;c3.67,0,6.02-1.95,6.83-5.98h2.06c-0.81,5.69-4.55,7.97-8.88,7.97c-5.51,0-9-3.19-9-11.38v-3.01c0-8.19,3.49-11.38,9-11.38&#xA;&#x9;&#x9;c4.52,0,8.11,2.35,8.92,7.89H37.38z"></path>
&#x9;<path class="st0" fill="#17140F" d="M49.93,40.02c-4.74,0-7.45-2.94-7.45-8.08v-2.68c0-5.21,2.75-8.04,7.45-8.04s7.45,2.83,7.45,8.04v2.68&#xA;&#x9;&#x9;C57.39,36.94,54.85,40.02,49.93,40.02z M55.37,29.27c0-4-1.95-6.17-5.43-6.17c-3.52,0-5.43,2.17-5.43,6.17v2.68&#xA;&#x9;&#x9;c0,3.85,1.73,6.2,5.43,6.2c3.56,0,5.43-2.35,5.43-6.2V29.27z"></path>
&#x9;<path class="st0" fill="#17140F" d="M61.61,21.45h2.02v2.5c0.95-1.76,2.64-2.72,5.4-2.72c4.08,0,6.76,2.53,6.76,7.71V39.8h-2.02V28.97&#xA;&#x9;&#x9;c0-4.19-2.09-5.84-4.96-5.84c-3.45,0-5.18,2.28-5.18,5.65V39.8h-2.02V21.45z"></path>
&#x9;<path class="st0" fill="#17140F" d="M80.92,21.45h2.02v2.5c0.96-1.76,2.64-2.72,5.4-2.72c4.08,0,6.75,2.53,6.75,7.71V39.8h-2.02V28.97&#xA;&#x9;&#x9;c0-4.19-2.09-5.84-4.96-5.84c-3.45,0-5.18,2.28-5.18,5.65V39.8h-2.02V21.45z"></path>
&#x9;<path class="st0" fill="#17140F" d="M101.33,31.14v0.77c0,3.63,1.69,6.24,5.58,6.24c2.24,0,3.74-0.66,4.77-2.24l1.62,1.14&#xA;&#x9;&#x9;c-1.29,2.02-3.3,2.97-6.28,2.97c-4.88,0-7.71-3.01-7.71-8.11v-2.64c0-5.21,2.5-8.04,7.09-8.04c4.59,0,7.08,2.83,7.08,8.04v1.87&#xA;&#x9;&#x9;H101.33z M101.33,29.3h10.13v-0.04c0-4-1.73-6.17-5.07-6.17s-5.07,2.2-5.07,6.17V29.3z"></path>
&#x9;<path class="st0" fill="#17140F" d="M131.07,37.05c-1.21,1.95-3.38,2.97-6.24,2.97c-4.92,0-7.75-2.94-7.75-8.11v-2.64c0-5.21,2.9-8.04,7.75-8.04&#xA;&#x9;&#x9;c2.68,0,4.85,0.95,6.21,2.83l-1.62,1.1c-1.03-1.39-2.75-2.06-4.59-2.06c-3.63,0-5.73,2.2-5.73,6.17v2.64&#xA;&#x9;&#x9;c0,3.63,1.69,6.24,5.73,6.24c1.87,0,3.6-0.62,4.63-2.24L131.07,37.05z"></path>
&#x9;<path class="st0" fill="#17140F" d="M132.65,21.45H135v-4.04h2.02v4.04h4.52v1.87h-4.52V33.6c0,2.94,0.33,4.26,3.3,4.26h1.21v1.95h-1.29&#xA;&#x9;&#x9;c-4.08,0-5.25-1.84-5.25-5.65V23.32h-2.35V21.45z"></path>
&#x9;<path class="st0" fill="#17140F" d="M145.91,14.47h2.46v2.46h-2.46V14.47z M146.13,21.45h2.02V39.8h-2.02V21.45z"></path>
&#x9;<path class="st0" fill="#17140F" d="M160.37,40.02c-4.74,0-7.45-2.94-7.45-8.08v-2.68c0-5.21,2.75-8.04,7.45-8.04s7.45,2.83,7.45,8.04v2.68&#xA;&#x9;&#x9;C167.83,36.94,165.29,40.02,160.37,40.02z M165.81,29.27c0-4-1.95-6.17-5.43-6.17c-3.52,0-5.43,2.17-5.43,6.17v2.68&#xA;&#x9;&#x9;c0,3.85,1.73,6.2,5.43,6.2c3.56,0,5.43-2.35,5.43-6.2V29.27z"></path>
&#x9;<path class="st0" fill="#17140F" d="M172.05,21.45h2.02v2.5c0.95-1.76,2.64-2.72,5.4-2.72c4.08,0,6.76,2.53,6.76,7.71V39.8h-2.02V28.97&#xA;&#x9;&#x9;c0-4.19-2.09-5.84-4.96-5.84c-3.45,0-5.18,2.28-5.18,5.65V39.8h-2.02V21.45z"></path>
</g>
</svg>
