<?xml version="1.0"?>
<svg id="_레이어_1" data-name="레이어_1" xmlns="http://www.w3.org/2000/svg" version="1.1" width="1472.08" height="778.48" viewBox="0 0 1472.08 778.48">

  <defs>

  </defs>
  <path class="st0" fill="#ceff00" d="M1450.01,363.73c-8.57,1.14-34.52,3.67-46.7,4.98-12.17,1.31-23.86.89-35.28-3.27-4.25-6.37-8.8-11.06-16.02-13.82-9.17-.45-17.08-5.6-26.27-5.07,1.47,2.74,2.98,4.97,5.35,7.1.61.55,1.56,1.47,2.33,1.93-9.56,3.38-16.02,9.43-23.39,17.98-4.58,5.32-13.64,16.98-18.95,23.37-10.84,15.45-20.77,28.47-34.45,42-5.79,5.72-15.84,15.42-21.75,21.01-14.16,13.38-27.66,23.7-43.51,34-4.45,2.89-9.43,3.96-14.53,5.38-.09-6.77-.15-12.57,2.15-19.06,8.27-23.36,17.23-42.8,29.56-65.61,6.07-11.23,16.43-28.7,22.67-40.78,3.35-6.48,1.91-10.12-3.65-14.28-3.66-2.74-12.52-6.2-16.02-.8-18.79,29.01-36.67,58.66-58.91,85.24-23.93,28.59-49.45,55.71-76.54,81.27-15.47,14.59-31.67,26.98-50.72,36.38-5.6,2.76-11.57,3.54-17.85,3.85-9.71.48-18.01-2.2-21.69-12.42-3.68-10.22-4.37-18.75-1.77-30.72,2.84-13.09,7.73-30.65,10.89-44.5,14.5-4.44,25.1-8.8,36.52-19.83,5.32-5.13,12.33-12.77,18.59-19.04,25.43-31.92,58.3-71.82,79.78-103.49,21.49-31.67,36.57-56.63,54.83-84.86,20.32-31.41,39.94-67.57,45.09-102.4,1.8-12.18-2.8-15.53-8.92-21.66-6.12-6.14-14.14-8.06-21.91-5.17-14.55,5.42-24.42,13.47-36.53,24.8-9.02,8.44-21.24,21.37-30.86,30.64-45.55,50.9-81.94,107.74-113.94,167.9-12.04,1.47-29.69,4.02-40.53,5.28-15.65,1.83-30.88,3.15-44.24,1.9-14.87-1.39-18.2-14.15-27.52-15.13-13.43-1.41-19.99-3.75-32.01-2.84,3.34,2.74,6.21,5.39,9.36,8.06-9.63,6.45-17.32,13.62-24.79,22.58-14.66,17.58-24.64,36.07-30.14,58.38-5.36-2.76-10.3-5.95-16.5-5.96-16.94-.02-30.13-.31-47.58,4.37-11.02,2.96-25.96,6.73-38.37,10.82s-26.32,9.28-39.05,14.33c-12.73,5.04-25.05,11.1-38.21,17.26,21.55-47.48,36.91-84.48,63.49-132.88,20.22-36.81,48.7-88.15,70.39-127.51,13.83-.17,27.18,1.77,40.2,2.5,1.57.09,4.61,1.32,3.55,2.71-7.76,10.11-24.52,11.99-36.32,13.78,2.05,5.33,10.71,4.26,14.04,4.61,14.52,1.5,48.21-.31,43.16-21-4.48-18.35-42.46-14.43-56.73-15.55,2.25-4.57,7.34-10.15,9.51-14.64,3.71-7.68-13.28-14.06-16.78-10.62-8.02,7.89-12.05,17.03-20.19,24.15-11.15.24-17.84-.3-29.96.04-12.13.34-19.82.86-35.76,1.54-15.94.68-45.29,2.68-63.41,3.26,8.01-13.31,23.89-36.72,30.63-47.68,6.74-10.96,4.9-9.42,10.08-18-5.12-8.83-12.41-12.21-21.61-17.92-4.4-2.73-11.34-2.47-15.05,3.9-8.16,14.01-19.69,32.34-27.57,45.98-7.88,13.64-13.97,23.97-20.13,36.89-19.8,2.23-13.43,1.21-37.88,4.41-24.45,3.2-11.62.88-56.67,7.4-39.99,5.79-109.31,20.43-161.55,29.18.51-.66,1.03-1.32,1.54-1.98,22.5-29.53,54.29-83.77,61.25-117.81l8.05-39.36c3.28-16.05,3.06-33.09-4.33-47.95-13.9-27.93-51.03-32.81-79.55-21-39.42,16.33-69.26,45.04-97.47,76.59l-15.45,17.28c9.11-20.19,20.42-37.94,29.53-57.77l10.21-22.22c4.03-8.76.56-19.28-9.41-22.22-22.41-6.59-36.99,4.79-54.17,18.4l-38.36,33.69-.85,5.46c-.75,4.84,24.43,4.35,31.53-4.54l14.55-18.21-22.34,45.4c-22.74,46.2-42.14,92.93-59.78,141.27l-19.7,54c-10,27.4-19.87,53.92-28.56,81.76l-9.45,30.27c-1.63,5.21-.97,11.15-4.53,15.72,1.28-14.91,3.9-28.51,8.26-42.69-7.76,7.65-10.91,18.19-13.21,28.92-2.24,10.45-3.61,20.46-1.37,31.13-8.51,33.36-65.49,354.02-26.14,355.96,10.58.52,16.41-13.96,16.96-23.56,1.11-19.51,8.1-37.13,8.98-56.6,5.15-113.65,27.55-216.16,51.2-278.09,17.67-2.15,33.29-6.29,49.04-13.7,32.85-15.46,61.99-35.86,89.48-59.61,32.84-28.36,63.23-58.4,90.65-91.65,1.4.74.16,1.86,2.74,1.39,22.84-4.13-7.21,2.7,28.33-4.26,35.54-6.97,119.64-25.48,159.03-31.95,39.38-6.47,41.07-7,73.18-11.17-8.14,13.82-18.17,34.59-24.47,47.06-23.23,45.95-41.01,87.79-57.72,136.55-6.21,18.12-17.04,49.94-23.21,68.11-12.29,36.21-21.19,69.43-28.26,105.61-1.72,8.78-3.09,17.33-4.24,25.86l-29.43,26.06c-5,4.43-13.54,8.07-20.3,5.95-10.74-10.39-5.16-33.04-2.22-51.18,1.59-9.77-3.01-18.08-12.5-20.62-6.22-1.67-13.9-2.72-20.51-1.73l-53.23,7.91c-10.54,1.57-20.88,1.99-31.58,1.07-15.23-1.31-14.17-19.7-35.26-17.31-7.54.86-17.56-6.2-29.55-3.63l8.48,9.41-11.6,9.07c-29.36,29.06-53.01,64.36-51.15,106.54.77,17.48,6.74,32.83,20.46,43.81,9.78,7.82,22.14,9.91,35.03,6.73,32.19-7.92,59.36-31.67,70.46-63.22,8.19-23.28,5.49-47.71-6.11-70.21,16.97.13,33.53-.91,50.13-4.35l39.48-8.18c-14.44,23.4-7,60.38,18.19,69.04,12.3,4.23,25.22,1.85,34.88-5.89,7.75-6.21,19.78-17.74,24.92-28.02-.86,7.58-1.56,15.22-2.18,23.05-1.45,18.3-.36,35.58,5.92,52.94,4.14,11.46,11.79,19.13,22.28,25.25,6.18,3.61,12.67,6.76,20.32,6.77,6.63.02,13.03-3.86,13.77-11.58.53-5.52-1.95-13.35-5.98-17.66-7.92-2.68-11.1,5.21-17.94,5.59-1.76.1-3.22-2.26-3.44-3.68-6.21-39.56-1.53-77.34,9.09-117.31,3.82-14.38,6.87-27.53,13.22-48.35,6.36-20.82,19.1-57.58,26.4-81.43,15.66-42.77,30.64-80.46,50.26-122.34,9.92-21.18,27.64-59.19,36.52-77.7,8.88-18.51,8.84-16.26,15.92-30.8,11.66.08,18.48-1,31.63-1.48,13.15-.48,30.9-1.52,45.9-1.9,15-.38,32.69-.72,47.82-.66-12.03,20.02-29.89,49.25-40.94,67.61-21.42,35.59-37.09,67.55-55.33,102.71-12.76,24.59-23.26,47.03-34.38,73.1-3.03,7.1-7.5,19.17-11.14,26.87-3.37,7.14-6.65,10.91-13.95,15.12-11.88,6.86-28.36,15.57-40.13,22.16-9.92,5.55-16.12,9.14-24.24,15.99,17.98,13.27,39.04,5.5,59.07,1.61-4.68,16.28-11.17,36.15-15.5,51.79-4.33,15.64-9.51,35.82-12.82,48.97-7.97,31.63-15.33,74.44,9.59,97.69,14.37,13.4,31.14,13.32,48.57,6.4,39.3-15.6,62.44-62.97,70.21-102.54,6.88-35.01-.62-67.81-20.93-96.62-9.93-14.09-23.92-20-40.74-20.39,4.18-6.88,8.62-13.88,12.89-20.81,3.84-2.42,7.42-4.79,11.41-7.24,32.06-17.44,68.36-30.99,102.73-40.85,16.03-4.6,37.55-9.21,49.09-10.16,11.55-.95,5.07.48,13.32-.03-2.91,1.49-4.57,2.95-6.99,4.28,4.98,4.45,12.91,1.88,14.59,9.79,4.61,21.68,16.44,38.3,40.77,37.82,34.92-7.98,60.74-32.19,68.76-67.42,4.01-17.62-.34-32.59-7.61-48.63,26.63,1.7,52.99-3.21,78.77-6.03-18.53,38.14-41.92,107.13-45.79,141.72-3.86,34.59,1.51,7.6-.88,32.24,5.85,22.35,19.8,44.48,46.96,47.12,50.79,4.94,101.32-56.16,129.58-93.08,5.96-7.79,16.31-21.94,22.7-30.29-2.43,10.02-7.08,22.94-9.24,32.67-2.16,9.73,1.76,16.39,10.16,20.11,11.19,4.97,21.8,2.62,32.29-3.83,17.54-10.79,30.82-21.98,46.12-37.81,9.82-10.15,23.96-25.91,34.43-36.98-2.15,10.29-4.47,20.78-1.56,31.45,5.48,20.06,22.03,31.02,42.46,25.33,19.98-5.57,34.69-16.66,47.48-33.15,16.67-21.48,19.71-45.71,12.67-71.81-.28-.42-1.44-2.43-.71-2.47.73-.04,2.26.3,2.94.37,9.52,1.05,22.08,2.09,31.06,1.02,14.52-1.73,55.06-2.24,61.86-13.63,5.17-8.67-11.54-10.14-21.09-8.87ZM790.01,194.22l38.21,4.23,9.34,5.17-22.05-3.33-28.94-2.34c-.29-1.22,1.95-3.9,3.44-3.73ZM382.23,116.25l-7.24,20.51c-4.04,11.43-8.38,22.15-16.66,30.85l3.34.43c.55.07.32,2.61.02,3.14l-8.77,15.75-6.1-1.55,19.44-37.38c3.06-5.88,6.4-10.97,8.66-17.36,1.87-5.3,2.71-10.52,7.32-14.4ZM371.87,29.57c9.58,30.15-.08,75.03-14.86,104.36-8.34,16.56-16.15,32.76-26.53,48.05l-21.12,31.1c-9.4,13.84-19.7,26.26-30.66,38.92l-11.86,11.7-13.41,13.63c-25.77,26.19-51.2,51.22-80.42,72.73l-26.75,18.04c-13.42,9.05-27.59,14.42-43.18,21.55,2.64-13.14,5.67-23.33,9.62-35.18,15.21-45.69,32.77-90.04,54.41-133.24,19.39-38.69,42.07-74.23,67.2-109.29,13.24-18.48,28.48-34.02,44.84-49.7,14.15-13.56,29.89-24.53,47.2-33.52,16.88-8.77,40.31-15.62,45.54.85ZM144.67,247.12c2.85-9.25,6.19-17.68,11.77-26.44-2.39,9.16-5.67,18.03-11.77,26.44ZM160.39,213.11c3.52-10.23,8.24-17.95,13.31-26.3,10.34-17.05,20.38-33.73,32.08-49.85l10.19-11.64-49.01,79.55c-1.81,2.93-4.42,5.99-6.57,8.25ZM227.03,87.32c32.04-34.73,55.26-57.57,99.91-75.51,4.3-1.73,8.85-2.32,12.61-1.87-48.73,14.47-83.19,49.32-114.75,87.61-16.31,19.79-29.53,40.39-44.19,62.49,4.35-11.7,10.16-22.34,16.2-33.46,8.01-14.74,18.89-26.99,30.21-39.26ZM183.45,98.39l21.96-51.34c1.68-3.92,2.88-7.83,6.5-10.22l-30.95,80.1-13.2,37.22c-.15.44.09,3.75-.22,3.46l-1.93-1.77c3.89-19.62,9.8-38.63,17.85-57.45ZM134.18,176.12c5.49-13.68,10.21-27.2,18.37-40.45-5.12,19.8-13.51,37.78-22.82,55.7.66-5.54,2.78-10.04,4.45-15.24ZM109.83,280.92l20.66-50.22c8.4-20.43,16.06-39.92,26.14-59.6.81-1.59,3.03-2.91,5.6-3.47l-6.48,17.42-14.78,33.82-32.88,73.51c-1.16-4.35.24-7.82,1.74-11.46ZM70.16,440.56l-6.13,21.88c-1.79-11.64,1.49-21.96,6.72-31.51.23,2.97.16,6.93-.59,9.62ZM63.87,408.71c-.28-3.6-.46-8.1.74-11.26l17.81-46.93c5.02-13.24,9.08-26.33,14.67-38.51-3.51,19.43-11.27,35.57-15.69,53.59-3.83,15.63-8.85,30.03-17.53,43.11ZM87.52,401.56c-.94-5.68.21-10.38,1.84-15.55,7.66-24.25,16.9-47.21,25.76-70.99l8.93-23.95,1.81-.36-11.8,33.16c-7.63,21.43-14.62,42.22-21.85,63.73l-4.69,13.97ZM278.53,278.01l-15.88,15.15-11.36,11.15c-22.54,22.13-46.41,42.16-71.75,60.97-15.5,11.51-31.06,20.86-48.43,28.93l-9.02,3.17-22.12,7.17-7.31-2.11c5.17-3.86,11.76-6.84,18.01-10.18l27.19-14.54c28.97-15.5,53.03-36.15,77.37-57.22,6.15-5.32,11.55-10.12,18.73-13.83l-24.84,24.94-31.56,25.75c-19.07,15.56-40.28,26.4-62.16,37.49l12.15-2.97c37.13-17.99,61.22-37.11,91.4-64.06l35.56-31.76c18.27-16.31,33.8-34.67,49.92-53.23,4.63-1.86,8.02-5.54,9.17-10.41l13.67-14.29c-2.31,7.39-7.68,11.46-11.85,17.12l-10.55,14.33-26.36,28.41ZM547.92,209.13l-17.22,2.55-13.62,2.03-25.91,4.29-19.63,2.86-16.57,2.44c-3.33.49-5.39.94-7.28-.67l12.76-2.29,13.34-2.18,17.27-2.59,12.36-1.9,17.24-2.66,12.34-1.93,16.08-2.52,15-.68-16.17,3.27ZM267.79,616.12c-7.56,50.82-68.57,88.67-83.27,78.1-9.54-6.86-7.23-25.14-2.9-38.94,10.66-33.99,31.15-64.04,58.48-86.78,5.7,8.8,14.29,10.78,23.85,12.15,3.52,10.81,5.57,23.86,3.84,35.48ZM463.07,634.71l-2.13,16.03-.12-17.04,3.91-30.08,2.29.12-3.95,30.97ZM524.67,399.23l-12.84,35.86c-17.65,49.27-31.4,98.41-43.16,150.02-.79-19,4.73-37.01,10.12-55.12l20.81-70c16.43-48.56,33.15-96.31,55.32-142.79-8.13,28.71-20.38,54.47-30.25,82.03ZM575.21,258.25l-24.22,51.79c-21.4,45.76-37.95,92.77-54.26,140.79-15.23,44.82-27.7,89.2-37.48,135.39l-8.18,61.98c-2.93-9.5-2.69-19.85-1.82-30.97,3.01-38.38,10.03-75.08,21.01-112.13,28.45-95.98,57.87-173.37,106.81-260.89,4.16-7.43,7.57-14.23,14.08-19.81l-15.95,33.86ZM714.19,197.3l-41.63,1.55-23.09.35,12.54-1.71,18.25-.99,74.99-3.31c.7-.03,3.59.32,3.35.95l-1.11,2.88-43.3.28ZM661.62,395.66l16.97-32.05,1.42,1.04-15.72,32.33c-2.96,6.09-4.84,11.97-9.56,17.89,1.04-7.07,3.62-13.05,6.88-19.21ZM569.23,656.12l9.37-46.36,14.52-52.71,6.99-21.58c1.08-3.35,2.69-5.91,6.4-7.91l-8.47,29.48-20.25,72.93c-2.42,8.84-2.73,17.55-8.56,26.15ZM604.67,588.41l-8.67,32.92c-1.8-3.23-.47-7.02.67-10.72,2.33-7.55,2.47-15.39,8-22.21ZM650.37,530.64c9.74,8.03,14.54,19.01,17.83,30.88,6.72,24.28,4.61,48.87-4.55,72.4-9.93,25.53-22.79,49.07-41.12,69.36-6.84,7.57-14.42,12.79-24.24,16.11-8.9,3.01-14.64-12.93-12.52-30.09,2.57-20.77,7.24-40.55,12.89-60.78l15.47-55.41,3.62-20.32,6.15-22.13c2.61-9.41,18.37-6.69,26.47-.01ZM618.24,476.67c4.25-8.75,8.6-16.49,14.76-24.87-1.53,9.98-5.39,19.44-14.76,24.87ZM786.37,423.36l-27.53,5.77-29.51,8.27-30.81,11.29c-7.97,2.92-15.23,7.76-23.26,8.8,34.63-18.49,71.09-29.08,108.81-36.31,6.05-1.16,13.02-.18,18.5.25l-16.19,1.93ZM916.13,421.38c-10.21,19.65-26.35,34.82-46.96,44.26-5.3,2.43-11.52,3.57-16.51,1.85-3.86-1.33-6.53-7.62-6.73-11.67-1.39-29.32,20.35-65.1,40.2-86.79l12.27-10.71c3.8,6.42,8.39,8.38,15.24,10.1l6.69,1.68,2.59,19.82c1.42,10.86-1.76,21.78-6.79,31.47ZM1169.49,257.98c5.58-12.16,12.72-23.13,21.31-33.62-5.47,12.24-12.57,22.86-21.31,33.62ZM1166.83,172.21c7.39-9.4,32.48-33.09,43.53-33.62,1.23,4.2.9,8.8-.64,12.97-8.09,21.91-17.26,42.65-29.29,62.94-19.9,33.57-39.63,66.15-62.3,98.11-30.04,42.35-62.34,81.83-95.82,121.95l-20.55,20.69,9.66-28.33c11.71-34.34,27-66.12,45.2-97.65,22-38.12,45.27-74.41,72.4-108.95l37.8-48.11ZM993.29,420.09c8.34-23.2,17.51-44.87,28.8-66.9,20.54-40.07,41.83-79.68,71.4-114.35l-45.93,72.6-15.75,29.3c-18.29,34.01-32.49,68.87-44.81,105.41.58-9.25,3.24-17.59,6.28-26.06ZM973.87,511.18c-.1.2-2.08-.71-1.92-1.33l.8-3.21c2.63-10.51.99-21.34,7.77-31.2l-6.65,35.73ZM1152.7,462.69l-37.32,45.9c-10,10.2-19.36,20.72-32.47,27.88,26.54-26.91,50.9-53.92,73.19-83.93l8.51-9.33-11.91,19.47ZM1164.77,484.33c.61-13.65,5.53-25.84,11.6-37.79l11.58-22.82-7.78,21.8-15.4,38.81ZM1311.44,472.08c-5.93,2.69-12.24,4.29-19.63,2.99-8.75-1.54-1.88-24.84,4.28-38.23,9-19.54,20.74-37.13,34.6-53.48l14.87-13.52c1.71,8.57,8.82,13.72,18.56,14.56,7.15,38.05-18.95,72.34-52.68,87.67Z"></path>
  <path class="st0" fill="#ceff00" d="M1257.88,347.41c7.65-2.12,23.44-31.79,28.25-44.97,1.65-4.5-6.31-8.33-9.87-8.85-4.18-.61-8.29,2.79-11.24,6.63-7.71,10.06-14.67,19.73-19.4,31.63-1.59,3.99-.45,8.38,2.83,12.04,2.27,2.54,6.61,4.29,9.43,3.51Z"></path>
</svg>
