<?xml version="1.0"?>

<svg version="1.1" id="레이어_1" xmlns="http://www.w3.org/2000/svg" xmlns:xlink="http://www.w3.org/1999/xlink" x="0px" y="0px" viewBox="0 0 1844.18 94.55" style="enable-background:new 0 0 1844.18 94.55;" xml:space="preserve">

<g>
&#x9;<g>
&#x9;&#x9;<path class="st0" fill="#ceff00" d="M710.29,22.81c-2.41-12.37-9.72-17.03-19.68-17.03c-12.53,0-19.84,7.23-19.84,27.15v8.68&#xA;&#x9;&#x9;&#x9;c0,20,7.39,27.15,19.84,27.15c10.6,0,17.35-5.62,19.68-17.27h5.94c-2.33,16.31-13.09,22.89-25.63,22.89&#xA;&#x9;&#x9;&#x9;c-15.91,0-25.95-9.24-25.95-32.86v-8.68C664.66,9.24,674.7,0,690.61,0c13.01,0,23.38,6.75,25.79,22.81H710.29z"></path>
&#x9;&#x9;<path class="st0" fill="#ceff00" d="M746.52,74.39c-13.66,0-21.53-8.43-21.53-23.3v-7.71c0-15.02,7.95-23.22,21.53-23.22s21.53,8.19,21.53,23.22&#xA;&#x9;&#x9;&#x9;v7.71C768.05,65.47,760.74,74.39,746.52,74.39z M762.26,43.38c0-11.57-5.62-17.83-15.66-17.83c-10.2,0-15.66,6.27-15.66,17.83&#xA;&#x9;&#x9;&#x9;v7.71c0,11.09,4.98,17.91,15.66,17.91c10.28,0,15.66-6.75,15.66-17.91V43.38z"></path>
&#x9;&#x9;<path class="st0" fill="#ceff00" d="M780.26,20.81h5.86v7.23c2.73-5.06,7.63-7.87,15.58-7.87c11.73,0,19.52,7.31,19.52,22.25v31.33h-5.86V42.5&#xA;&#x9;&#x9;&#x9;c0-12.05-6.02-16.87-14.3-16.87c-9.96,0-14.94,6.59-14.94,16.31v31.81h-5.86C780.26,73.75,780.26,20.81,780.26,20.81z"></path>
&#x9;&#x9;<path class="st0" fill="#ceff00" d="M831.27,20.81h6.75V9.08h5.86v11.65h13.01v5.38h-13.01v29.64c0,8.43,0.96,12.29,9.56,12.29h3.53v5.62h-3.7&#xA;&#x9;&#x9;&#x9;c-11.73,0-15.18-5.3-15.18-16.31V26.19h-6.75v-5.38H831.27z"></path>
&#x9;&#x9;<path class="st0" fill="#ceff00" d="M871.19,48.76v2.25c0,10.52,4.9,17.99,16.07,17.99c6.43,0,10.84-1.93,13.74-6.51l4.66,3.29&#xA;&#x9;&#x9;&#x9;c-3.7,5.86-9.56,8.6-18.16,8.6c-14.06,0-22.25-8.68-22.25-23.38v-7.63c0-15.02,7.23-23.22,20.48-23.22&#xA;&#x9;&#x9;&#x9;c13.25,0,20.48,8.19,20.48,23.22v5.38C906.22,48.76,871.19,48.76,871.19,48.76z M871.19,43.46h29.24v-0.08&#xA;&#x9;&#x9;&#x9;c0-11.57-4.98-17.83-14.62-17.83c-9.64,0-14.62,6.35-14.62,17.83V43.46z"></path>
&#x9;&#x9;<path class="st0" fill="#ceff00" d="M919.31,20.81h5.86v7.23c2.73-5.06,7.63-7.87,15.58-7.87c11.73,0,19.52,7.31,19.52,22.25v31.33h-5.86V42.5&#xA;&#x9;&#x9;&#x9;c0-12.05-6.02-16.87-14.3-16.87c-9.96,0-14.94,6.59-14.94,16.31v31.81h-5.86V20.81z"></path>
&#x9;&#x9;<path class="st0" fill="#ceff00" d="M970.4,20.81h6.75V9.08h5.86v11.65h13.01v5.38h-13.01v29.64c0,8.43,0.96,12.29,9.56,12.29h3.53v5.62h-3.7&#xA;&#x9;&#x9;&#x9;c-11.73,0-15.18-5.3-15.18-16.31V26.19h-6.75v-5.38H970.4z"></path>
&#x9;&#x9;<path class="st0" fill="#ceff00" d="M1036.28,73.75V0.64h22.25c16.23,0,26.51,8.6,26.51,32.21v8.68c0,23.62-10.28,32.21-26.51,32.21H1036.28z&#xA;&#x9;&#x9;&#x9; M1078.85,41.53v-8.68c0-20-7.71-26.51-20.32-26.51h-16.07v61.7h16.07C1070.98,68.04,1078.85,61.86,1078.85,41.53z"></path>
&#x9;&#x9;<path class="st0" fill="#ceff00" d="M1099.18,0.64h7.07v7.07h-7.07V0.64z M1099.82,20.81h5.86v52.94h-5.86V20.81z"></path>
&#x9;&#x9;<path class="st0" fill="#ceff00" d="M1127.86,41.85v31.89h-5.86V20.81h5.86v7.23c2.25-4.9,6.67-7.87,13.34-7.87c6.91,0,11.41,2.65,14.94,7.31&#xA;&#x9;&#x9;&#x9;l-4.9,3.61c-2.73-3.61-5.94-5.38-10.6-5.38C1132.44,25.63,1127.86,32.21,1127.86,41.85z"></path>
&#x9;&#x9;<path class="st0" fill="#ceff00" d="M1165.77,48.76v2.25c0,10.52,4.9,17.99,16.07,17.99c6.43,0,10.84-1.93,13.74-6.51l4.66,3.29&#xA;&#x9;&#x9;&#x9;c-3.7,5.86-9.56,8.6-18.16,8.6c-14.06,0-22.25-8.68-22.25-23.38v-7.63c0-15.02,7.23-23.22,20.48-23.22&#xA;&#x9;&#x9;&#x9;c13.25,0,20.48,8.19,20.48,23.22v5.38C1200.8,48.76,1165.77,48.76,1165.77,48.76z M1165.77,43.46h29.24v-0.08&#xA;&#x9;&#x9;&#x9;c0-11.57-4.98-17.83-14.62-17.83c-9.64,0-14.62,6.35-14.62,17.83C1165.77,43.38,1165.77,43.46,1165.77,43.46z"></path>
&#x9;&#x9;<path class="st0" fill="#ceff00" d="M1251.65,65.79c-3.53,5.62-9.72,8.6-17.99,8.6c-14.22,0-22.33-8.43-22.33-23.38v-7.63&#xA;&#x9;&#x9;&#x9;c0-15.02,8.35-23.22,22.33-23.22c7.71,0,13.98,2.73,17.91,8.19l-4.66,3.21c-2.97-4.02-7.95-5.94-13.25-5.94&#xA;&#x9;&#x9;&#x9;c-10.52,0-16.55,6.35-16.55,17.83v7.63c0,10.52,4.9,17.99,16.55,17.99c5.38,0,10.36-1.77,13.34-6.51L1251.65,65.79z"></path>
&#x9;&#x9;<path class="st0" fill="#ceff00" d="M1256.15,20.81h6.75V9.08h5.86v11.65h13.01v5.38h-13.01v29.64c0,8.43,0.96,12.29,9.56,12.29h3.53v5.62h-3.7&#xA;&#x9;&#x9;&#x9;c-11.73,0-15.18-5.3-15.18-16.31V26.19h-6.75v-5.38H1256.15z"></path>
&#x9;&#x9;<path class="st0" fill="#ceff00" d="M1311.82,74.39c-13.66,0-21.53-8.43-21.53-23.3v-7.71c0-15.02,7.95-23.22,21.53-23.22&#xA;&#x9;&#x9;&#x9;c13.58,0,21.53,8.19,21.53,23.22v7.71C1333.27,65.47,1325.96,74.39,1311.82,74.39z M1327.48,43.38c0-11.57-5.62-17.83-15.66-17.83&#xA;&#x9;&#x9;&#x9;c-10.2,0-15.66,6.27-15.66,17.83v7.71c0,11.09,4.98,17.91,15.66,17.91c10.28,0,15.66-6.75,15.66-17.91V43.38z"></path>
&#x9;&#x9;<path class="st0" fill="#ceff00" d="M1351.26,41.85v31.89h-5.86V20.81h5.86v7.23c2.25-4.9,6.67-7.87,13.34-7.87c6.91,0,11.41,2.65,14.94,7.31&#xA;&#x9;&#x9;&#x9;l-4.9,3.61c-2.73-3.61-5.94-5.38-10.6-5.38C1355.84,25.63,1351.26,32.21,1351.26,41.85z"></path>
&#x9;&#x9;<path class="st0" fill="#ceff00" d="M1419.63,40.49h-7.23v-7.23h7.23V40.49z"></path>
&#x9;&#x9;<path class="st0" fill="#ceff00" d="M1462.52,73.75V0.64h22.25c16.23,0,26.51,8.6,26.51,32.21v8.68c0,23.62-10.28,32.21-26.51,32.21H1462.52z&#xA;&#x9;&#x9;&#x9; M1505.1,41.53v-8.68c0-20-7.71-26.51-20.32-26.51h-16.07v61.7h16.07C1497.31,68.04,1505.1,61.86,1505.1,41.53z"></path>
&#x9;&#x9;<path class="st0" fill="#ceff00" d="M1527.67,48.76v2.25c0,10.52,4.9,17.99,16.07,17.99c6.43,0,10.84-1.93,13.74-6.51l4.66,3.29&#xA;&#x9;&#x9;&#x9;c-3.7,5.86-9.56,8.6-18.16,8.6c-14.06,0-22.25-8.68-22.25-23.38v-7.63c0-15.02,7.23-23.22,20.48-23.22s20.48,8.19,20.48,23.22&#xA;&#x9;&#x9;&#x9;v5.38C1562.7,48.76,1527.67,48.76,1527.67,48.76z M1527.67,43.46h29.24v-0.08c0-11.57-4.98-17.83-14.62-17.83&#xA;&#x9;&#x9;&#x9;s-14.62,6.35-14.62,17.83V43.46z"></path>
&#x9;&#x9;<path class="st0" fill="#ceff00" d="M1606.08,32.13c-3.29-4.66-6.67-6.43-14.38-6.43c-7.07,0-12.53,2.65-12.53,8.68c0,7.39,6.67,8.92,14.06,9.88&#xA;&#x9;&#x9;&#x9;c10.28,1.37,18.88,4.34,18.88,15.58c0,8.27-5.3,14.62-19.36,14.62c-10.52,0-15.99-3.29-19.92-8.76l4.58-3.21&#xA;&#x9;&#x9;&#x9;c3.21,4.42,7.23,6.43,15.5,6.43s13.5-2.65,13.5-9c0-6.75-5.3-9.08-15.75-10.52c-9-1.12-17.19-4.26-17.19-14.94&#xA;&#x9;&#x9;&#x9;c0-8.6,6.43-14.3,18.48-14.3c8.35,0,14.7,2.25,18.72,8.76L1606.08,32.13z"></path>
&#x9;&#x9;<path class="st0" fill="#ceff00" d="M1625.52,0.64h7.07v7.07h-7.07V0.64z M1626.16,20.81h5.86v52.94h-5.86V20.81z"></path>
&#x9;&#x9;<path class="st0" fill="#ceff00" d="M1645.76,43.38c0-15.02,7.55-23.22,20.65-23.22c7.95,0,13.01,2.57,15.99,7.55v-6.91h5.86v50.85&#xA;&#x9;&#x9;&#x9;c0,14.7-7.95,22.89-21.61,22.89c-8.52,0-14.06-2.73-17.59-8.6l4.58-3.29c2.89,4.58,7.23,6.51,13.34,6.51&#xA;&#x9;&#x9;&#x9;c10.68,0,15.5-6.99,15.5-17.51v-4.34c-2.97,4.9-8.03,7.07-15.99,7.07c-13.74,0-20.65-8.92-20.65-23.38v-7.63H1645.76z&#xA;&#x9;&#x9;&#x9; M1682.39,51.09v-8.35c0-10.36-4.58-17.19-15.58-17.19c-10.04,0-15.26,6.27-15.26,17.83v7.63c0,11.09,4.98,17.99,15.26,17.99&#xA;&#x9;&#x9;&#x9;C1678.7,69.01,1682.39,61.45,1682.39,51.09z"></path>
&#x9;&#x9;<path class="st0" fill="#ceff00" d="M1703.04,20.81h5.86v7.23c2.73-5.06,7.63-7.87,15.58-7.87c11.73,0,19.52,7.31,19.52,22.25v31.33h-5.86V42.5&#xA;&#x9;&#x9;&#x9;c0-12.05-6.03-16.87-14.3-16.87c-9.96,0-14.94,6.59-14.94,16.31v31.81h-5.86V20.81z"></path>
&#x9;&#x9;<path class="st0" fill="#ceff00" d="M1762,48.76v2.25c0,10.52,4.9,17.99,16.07,17.99c6.43,0,10.84-1.93,13.74-6.51l4.66,3.29&#xA;&#x9;&#x9;&#x9;c-3.7,5.86-9.56,8.6-18.16,8.6c-14.06,0-22.25-8.68-22.25-23.38v-7.63c0-15.02,7.23-23.22,20.48-23.22&#xA;&#x9;&#x9;&#x9;c13.25,0,20.48,8.19,20.48,23.22v5.38C1797.03,48.76,1762,48.76,1762,48.76z M1762,43.46h29.24v-0.08&#xA;&#x9;&#x9;&#x9;c0-11.57-4.98-17.83-14.62-17.83c-9.64,0-14.62,6.35-14.62,17.83L1762,43.46L1762,43.46z"></path>
&#x9;&#x9;<path class="st0" fill="#ceff00" d="M1815.91,41.85v31.89h-5.86V20.81h5.86v7.23c2.25-4.9,6.67-7.87,13.34-7.87c6.91,0,11.41,2.65,14.94,7.31&#xA;&#x9;&#x9;&#x9;l-4.9,3.61c-2.73-3.61-5.94-5.38-10.6-5.38C1820.49,25.63,1815.91,32.21,1815.91,41.85z"></path>
&#x9;</g>
&#x9;<g>
&#x9;&#x9;<rect y="44.26" class="st0" fill="#ceff00" width="593.74" height="6.02"></rect>
&#x9;</g>
</g>
</svg>
